<svg xmlns="http://www.w3.org/2000/svg" viewBox="0 0 1760 199">
  <g id="Layer_2" data-name="Layer 2">
    <g id="Layer_1-2" data-name="Layer 1">
      <rect width="22" height="22" rx="2.01" />
      <rect y="30" width="22" height="22" rx="2.01" />
      <rect y="59" width="22" height="22" rx="2.01" />
      <rect y="89" width="22" height="22" rx="2.01" />
      <rect y="118" width="22" height="22" rx="2.01" />
      <rect y="148" width="22" height="22" rx="2.01" />
      <rect y="177" width="22" height="22" rx="2.01" />

      <rect x="35" width="22" height="22" rx="2.01" />
      <rect x="35" y="30" width="22" height="22" rx="2.01" />
      <rect x="35" y="59" width="22" height="22" rx="2.01" />
      <rect x="35" y="89" width="22" height="22" rx="2.01" />
      <rect x="35" y="118" width="22" height="22" rx="2.01" />
      <rect x="35" y="148" width="22" height="22" rx="2.01" />
      <rect x="35" y="177" width="22" height="22" rx="2.01" />

      <rect x="69" width="22" height="22" rx="2.01" />
      <rect x="69" y="30" width="22" height="22" rx="2.01" />
      <rect x="69" y="59" width="22" height="22" rx="2.01" />
      <rect x="69" y="89" width="22" height="22" rx="2.01" />
      <rect x="69" y="118" width="22" height="22" rx="2.01" />
      <rect x="69" y="148" width="22" height="22" rx="2.01" />
      <rect x="69" y="177" width="22" height="22" rx="2.01" />

      <rect x="103" width="22" height="22" rx="2.01" />
      <rect x="103" y="30" width="22" height="22" rx="2.01" />
      <rect x="103" y="59" width="22" height="22" rx="2.01" />
      <rect x="103" y="89" width="22" height="22" rx="2.01" />
      <rect x="103" y="118" width="22" height="22" rx="2.01" />
      <rect x="103" y="148" width="22" height="22" rx="2.01" />
      <rect x="103" y="177" width="22" height="22" rx="2.01" />

      <rect x="136" width="22" height="22" rx="2.01" />
      <rect x="136" y="30" width="22" height="22" rx="2.01" />
      <rect x="136" y="59" width="22" height="22" rx="2.01" />
      <rect x="136" y="89" width="22" height="22" rx="2.01" />
      <rect x="136" y="118" width="22" height="22" rx="2.01" />
      <rect x="136" y="148" width="22" height="22" rx="2.01" />
      <rect x="136" y="177" width="22" height="22" rx="2.01" />

      <rect x="171" width="22" height="22" rx="2.01" />
      <rect x="171" y="30" width="22" height="22" rx="2.01" />
      <rect x="171" y="59" width="22" height="22" rx="2.01" />
      <rect x="171" y="89" width="22" height="22" rx="2.01" />
      <rect x="171" y="118" width="22" height="22" rx="2.01" />
      <rect x="171" y="148" width="22" height="22" rx="2.01" />
      <rect x="171" y="177" width="22" height="22" rx="2.01" />

      <rect x="205" width="22" height="22" rx="2.01" />
      <rect x="205" y="30" width="22" height="22" rx="2.01" />
      <rect x="205" y="59" width="22" height="22" rx="2.01" />
      <rect x="205" y="89" width="22" height="22" rx="2.01" />
      <rect x="205" y="118" width="22" height="22" rx="2.01" />
      <rect x="205" y="148" width="22" height="22" rx="2.01" />
      <rect x="205" y="177" width="22" height="22" rx="2.01" />

      <rect x="239" width="22" height="22" rx="2.01" />
      <rect x="239" y="30" width="22" height="22" rx="2.01" />
      <rect x="239" y="59" width="22" height="22" rx="2.01" />
      <rect x="239" y="89" width="22" height="22" rx="2.01" />
      <rect x="239" y="118" width="22" height="22" rx="2.01" />
      <rect x="239" y="148" width="22" height="22" rx="2.01" />
      <rect x="239" y="177" width="22" height="22" rx="2.01" />

      <rect x="272" width="22" height="22" rx="2.01" />
      <rect x="272" y="30" width="22" height="22" rx="2.01" />
      <rect x="272" y="59" width="22" height="22" rx="2.01" />
      <rect x="272" y="89" width="22" height="22" rx="2.01" />
      <rect x="272" y="118" width="22" height="22" rx="2.01" />
      <rect x="272" y="148" width="22" height="22" rx="2.01" />
      <rect x="272" y="177" width="22" height="22" rx="2.01" />

      <rect x="307" width="22" height="22" rx="2.01" />
      <rect x="307" y="30" width="22" height="22" rx="2.01" />
      <rect x="307" y="59" width="22" height="22" rx="2.01" />
      <rect x="307" y="89" width="22" height="22" rx="2.01" />
      <rect x="307" y="118" width="22" height="22" rx="2.01" />
      <rect x="307" y="148" width="22" height="22" rx="2.01" />
      <rect x="307" y="177" width="22" height="22" rx="2.01" />

      <rect x="341" width="22" height="22" rx="2.01" />
      <rect x="341" y="30" width="22" height="22" rx="2.01" />
      <rect x="341" y="59" width="22" height="22" rx="2.01" />
      <rect x="341" y="89" width="22" height="22" rx="2.01" />
      <rect x="341" y="118" width="22" height="22" rx="2.01" />
      <rect x="341" y="148" width="22" height="22" rx="2.01" />
      <rect x="341" y="177" width="22" height="22" rx="2.01" />

      <rect x="375" width="22" height="22" rx="2.01" />
      <rect x="375" y="30" width="22" height="22" rx="2.01" />
      <rect x="375" y="59" width="22" height="22" rx="2.01" />
      <rect x="375" y="89" width="22" height="22" rx="2.01" />
      <rect x="375" y="118" width="22" height="22" rx="2.01" />
      <rect x="375" y="148" width="22" height="22" rx="2.01" />
      <rect x="375" y="177" width="22" height="22" rx="2.01" />

      <rect x="409" width="22" height="22" rx="2.01" />
      <rect x="409" y="30" width="22" height="22" rx="2.01" />
      <rect x="409" y="59" width="22" height="22" rx="2.01" />
      <rect x="409" y="89" width="22" height="22" rx="2.01" />
      <rect x="409" y="118" width="22" height="22" rx="2.01" />
      <rect x="409" y="148" width="22" height="22" rx="2.01" />
      <rect x="409" y="177" width="22" height="22" rx="2.01" />

      <rect x="443" width="22" height="22" rx="2.01" />
      <rect x="443" y="30" width="22" height="22" rx="2.01" />
      <rect x="443" y="59" width="22" height="22" rx="2.01" />
      <rect x="443" y="89" width="22" height="22" rx="2.01" />
      <rect x="443" y="118" width="22" height="22" rx="2.01" />
      <rect x="443" y="148" width="22" height="22" rx="2.01" />
      <rect x="443" y="177" width="22" height="22" rx="2.01" />

      <rect x="477" width="22" height="22" rx="2.01" />
      <rect x="477" y="30" width="22" height="22" rx="2.01" />
      <rect x="477" y="59" width="22" height="22" rx="2.01" />
      <rect x="477" y="89" width="22" height="22" rx="2.01" />
      <rect x="477" y="118" width="22" height="22" rx="2.01" />
      <rect x="477" y="148" width="22" height="22" rx="2.01" />
      <rect x="477" y="177" width="22" height="22" rx="2.01" />

      <rect x="512" width="22" height="22" rx="2.01" />
      <rect x="512" y="30" width="22" height="22" rx="2.01" />
      <rect x="512" y="59" width="22" height="22" rx="2.01" />
      <rect x="512" y="89" width="22" height="22" rx="2.01" />
      <rect x="512" y="118" width="22" height="22" rx="2.01" />
      <rect x="512" y="148" width="22" height="22" rx="2.01" />
      <rect x="512" y="177" width="22" height="22" rx="2.01" />

      <rect x="545" width="22" height="22" rx="2.01" />
      <rect x="545" y="30" width="22" height="22" rx="2.01" />
      <rect x="545" y="59" width="22" height="22" rx="2.01" />
      <rect x="545" y="89" width="22" height="22" rx="2.01" />
      <rect x="545" y="118" width="22" height="22" rx="2.01" />
      <rect x="545" y="148" width="22" height="22" rx="2.01" />
      <rect x="545" y="177" width="22" height="22" rx="2.01" />

      <rect x="580" width="22" height="22" rx="2.01" />
      <rect x="580" y="30" width="22" height="22" rx="2.01" />
      <rect x="580" y="59" width="22" height="22" rx="2.01" />
      <rect x="580" y="89" width="22" height="22" rx="2.01" />
      <rect x="580" y="118" width="22" height="22" rx="2.01" />
      <rect x="580" y="148" width="22" height="22" rx="2.01" />
      <rect x="580" y="177" width="22" height="22" rx="2.01" />

      <rect x="614" width="22" height="22" rx="2.01" />
      <rect x="614" y="30" width="22" height="22" rx="2.01" />
      <rect x="614" y="59" width="22" height="22" rx="2.01" />
      <rect x="614" y="89" width="22" height="22" rx="2.01" />
      <rect x="614" y="118" width="22" height="22" rx="2.01" />
      <rect x="614" y="148" width="22" height="22" rx="2.01" />
      <rect x="614" y="177" width="22" height="22" rx="2.01" />

      <rect x="648" width="22" height="22" rx="2.01" />
      <rect x="648" y="30" width="22" height="22" rx="2.01" />
      <rect x="648" y="59" width="22" height="22" rx="2.01" />
      <rect x="648" y="89" width="22" height="22" rx="2.01" />
      <rect x="648" y="118" width="22" height="22" rx="2.01" />
      <rect x="648" y="148" width="22" height="22" rx="2.01" />
      <rect x="648" y="177" width="22" height="22" rx="2.01" />

      <rect x="682" width="22" height="22" rx="2.01" />
      <rect x="682" y="30" width="22" height="22" rx="2.01" />
      <rect x="682" y="59" width="22" height="22" rx="2.01" />
      <rect x="682" y="89" width="22" height="22" rx="2.01" />
      <rect x="682" y="118" width="22" height="22" rx="2.01" />
      <rect x="682" y="148" width="22" height="22" rx="2.01" />
      <rect x="682" y="177" width="22" height="22" rx="2.01" />

      <rect x="716" width="22" height="22" rx="2.01" />
      <rect x="716" y="30" width="22" height="22" rx="2.01" />
      <rect x="716" y="59" width="22" height="22" rx="2.01" />
      <rect x="716" y="89" width="22" height="22" rx="2.01" />
      <rect x="716" y="118" width="22" height="22" rx="2.01" />
      <rect x="716" y="148" width="22" height="22" rx="2.01" />
      <rect x="716" y="177" width="22" height="22" rx="2.01" />

      <rect x="750" width="22" height="22" rx="2.01" />
      <rect x="750" y="30" width="22" height="22" rx="2.01" />
      <rect x="750" y="59" width="22" height="22" rx="2.01" />
      <rect x="750" y="89" width="22" height="22" rx="2.01" />
      <rect x="750" y="118" width="22" height="22" rx="2.01" />
      <rect x="750" y="148" width="22" height="22" rx="2.01" />
      <rect x="750" y="177" width="22" height="22" rx="2.01" />

      <rect x="784" width="22" height="22" rx="2.01" />
      <rect x="784" y="30" width="22" height="22" rx="2.01" />
      <rect x="784" y="59" width="22" height="22" rx="2.01" />
      <rect x="784" y="89" width="22" height="22" rx="2.01" />
      <rect x="784" y="118" width="22" height="22" rx="2.01" />
      <rect x="784" y="148" width="22" height="22" rx="2.01" />
      <rect x="784" y="177" width="22" height="22" rx="2.01" />

      <rect x="818" width="22" height="22" rx="2.01" />
      <rect x="818" y="30" width="22" height="22" rx="2.01" />
      <rect x="818" y="59" width="22" height="22" rx="2.01" />
      <rect x="818" y="89" width="22" height="22" rx="2.01" />
      <rect x="818" y="118" width="22" height="22" rx="2.01" />
      <rect x="818" y="148" width="22" height="22" rx="2.01" />
      <rect x="818" y="177" width="22" height="22" rx="2.01" />

      <rect x="852" width="22" height="22" rx="2.01" />
      <rect x="852" y="30" width="22" height="22" rx="2.01" />
      <rect x="852" y="59" width="22" height="22" rx="2.01" />
      <rect x="852" y="89" width="22" height="22" rx="2.01" />
      <rect x="852" y="118" width="22" height="22" rx="2.01" />
      <rect x="852" y="148" width="22" height="22" rx="2.01" />
      <rect x="852" y="177" width="22" height="22" rx="2.01" />

      <rect x="886" width="22" height="22" rx="2.01" />
      <rect x="886" y="30" width="22" height="22" rx="2.01" />
      <rect x="886" y="59" width="22" height="22" rx="2.01" />
      <rect x="886" y="89" width="22" height="22" rx="2.01" />
      <rect x="886" y="118" width="22" height="22" rx="2.01" />
      <rect x="886" y="148" width="22" height="22" rx="2.01" />
      <rect x="886" y="177" width="22" height="22" rx="2.01" />

      <rect x="921" width="22" height="22" rx="2.01" />
      <rect x="921" y="30" width="22" height="22" rx="2.01" />
      <rect x="921" y="59" width="22" height="22" rx="2.01" />
      <rect x="921" y="89" width="22" height="22" rx="2.01" />
      <rect x="921" y="118" width="22" height="22" rx="2.01" />
      <rect x="921" y="148" width="22" height="22" rx="2.01" />
      <rect x="921" y="177" width="22" height="22" rx="2.01" />

      <rect x="954" width="22" height="22" rx="2.01" />
      <rect x="954" y="30" width="22" height="22" rx="2.01" />
      <rect x="954" y="59" width="22" height="22" rx="2.01" />
      <rect x="954" y="89" width="22" height="22" rx="2.01" />
      <rect x="954" y="118" width="22" height="22" rx="2.01" />
      <rect x="954" y="148" width="22" height="22" rx="2.01" />
      <rect x="954" y="177" width="22" height="22" rx="2.01" />

      <rect x="989" width="22" height="22" rx="2.01" />
      <rect x="989" y="30" width="22" height="22" rx="2.01" />
      <rect x="989" y="59" width="22" height="22" rx="2.01" />
      <rect x="989" y="89" width="22" height="22" rx="2.01" />
      <rect x="989" y="118" width="22" height="22" rx="2.01" />
      <rect x="989" y="148" width="22" height="22" rx="2.01" />
      <rect x="989" y="177" width="22" height="22" rx="2.01" />

      <rect x="1023" width="22" height="22" rx="2.01" />
      <rect x="1023" y="30" width="22" height="22" rx="2.01" />
      <rect x="1023" y="59" width="22" height="22" rx="2.01" />
      <rect x="1023" y="89" width="22" height="22" rx="2.01" />
      <rect x="1023" y="118" width="22" height="22" rx="2.01" />
      <rect x="1023" y="148" width="22" height="22" rx="2.01" />
      <rect x="1023" y="177" width="22" height="22" rx="2.01" />

      <rect x="1057" width="22" height="22" rx="2.01" />
      <rect x="1057" y="30" width="22" height="22" rx="2.01" />
      <rect x="1057" y="59" width="22" height="22" rx="2.01" />
      <rect x="1057" y="89" width="22" height="22" rx="2.01" />
      <rect x="1057" y="118" width="22" height="22" rx="2.01" />
      <rect x="1057" y="148" width="22" height="22" rx="2.01" />
      <rect x="1057" y="177" width="22" height="22" rx="2.01" />

      <rect x="1091" width="22" height="22" rx="2.01" />
      <rect x="1091" y="30" width="22" height="22" rx="2.01" />
      <rect x="1091" y="59" width="22" height="22" rx="2.01" />
      <rect x="1091" y="89" width="22" height="22" rx="2.01" />
      <rect x="1091" y="118" width="22" height="22" rx="2.01" />
      <rect x="1091" y="148" width="22" height="22" rx="2.01" />
      <rect x="1091" y="177" width="22" height="22" rx="2.01" />

      <rect x="1125" width="22" height="22" rx="2.01" />
      <rect x="1125" y="30" width="22" height="22" rx="2.01" />
      <rect x="1125" y="59" width="22" height="22" rx="2.01" />
      <rect x="1125" y="89" width="22" height="22" rx="2.01" />
      <rect x="1125" y="118" width="22" height="22" rx="2.01" />
      <rect x="1125" y="148" width="22" height="22" rx="2.01" />
      <rect x="1125" y="177" width="22" height="22" rx="2.01" />

      <rect x="1159" width="22" height="22" rx="2.01" />
      <rect x="1159" y="30" width="22" height="22" rx="2.01" />
      <rect x="1159" y="59" width="22" height="22" rx="2.01" />
      <rect x="1159" y="89" width="22" height="22" rx="2.01" />
      <rect x="1159" y="118" width="22" height="22" rx="2.01" />
      <rect x="1159" y="148" width="22" height="22" rx="2.01" />
      <rect x="1159" y="177" width="22" height="22" rx="2.01" />

      <rect x="1194" width="22" height="22" rx="2.01" />
      <rect x="1194" y="30" width="22" height="22" rx="2.01" />
      <rect x="1194" y="59" width="22" height="22" rx="2.01" />
      <rect x="1194" y="89" width="22" height="22" rx="2.01" />
      <rect x="1194" y="118" width="22" height="22" rx="2.01" />
      <rect x="1194" y="148" width="22" height="22" rx="2.01" />
      <rect x="1194" y="177" width="22" height="22" rx="2.01" />

      <rect x="1227" width="22" height="22" rx="2.01" />
      <rect x="1227" y="30" width="22" height="22" rx="2.01" />
      <rect x="1227" y="59" width="22" height="22" rx="2.01" />
      <rect x="1227" y="89" width="22" height="22" rx="2.01" />
      <rect x="1227" y="118" width="22" height="22" rx="2.01" />
      <rect x="1227" y="148" width="22" height="22" rx="2.01" />
      <rect x="1227" y="177" width="22" height="22" rx="2.01" />

      <rect x="1262" width="22" height="22" rx="2.01" />
      <rect x="1262" y="30" width="22" height="22" rx="2.01" />
      <rect x="1262" y="59" width="22" height="22" rx="2.01" />
      <rect x="1262" y="89" width="22" height="22" rx="2.01" />
      <rect x="1262" y="118" width="22" height="22" rx="2.01" />
      <rect x="1262" y="148" width="22" height="22" rx="2.01" />
      <rect x="1262" y="177" width="22" height="22" rx="2.01" />

      <rect x="1296" width="22" height="22" rx="2.01" />
      <rect x="1296" y="30" width="22" height="22" rx="2.01" />
      <rect x="1296" y="59" width="22" height="22" rx="2.01" />
      <rect x="1296" y="89" width="22" height="22" rx="2.01" />
      <rect x="1296" y="118" width="22" height="22" rx="2.01" />
      <rect x="1296" y="148" width="22" height="22" rx="2.01" />
      <rect x="1296" y="177" width="22" height="22" rx="2.01" />

      <rect x="1330" width="22" height="22" rx="2.01" />
      <rect x="1330" y="30" width="22" height="22" rx="2.01" />
      <rect x="1330" y="59" width="22" height="22" rx="2.01" />
      <rect x="1330" y="89" width="22" height="22" rx="2.01" />
      <rect x="1330" y="118" width="22" height="22" rx="2.01" />
      <rect x="1330" y="148" width="22" height="22" rx="2.01" />
      <rect x="1330" y="177" width="22" height="22" rx="2.01" />

      <rect x="1363" width="22" height="22" rx="2.01" />
      <rect x="1363" y="30" width="22" height="22" rx="2.01" />
      <rect x="1363" y="59" width="22" height="22" rx="2.01" />
      <rect x="1363" y="89" width="22" height="22" rx="2.01" />
      <rect x="1363" y="118" width="22" height="22" rx="2.01" />
      <rect x="1363" y="148" width="22" height="22" rx="2.01" />
      <rect x="1363" y="177" width="22" height="22" rx="2.01" />

      <rect x="1398" width="22" height="22" rx="2.01" />
      <rect x="1398" y="30" width="22" height="22" rx="2.01" />
      <rect x="1398" y="59" width="22" height="22" rx="2.01" />
      <rect x="1398" y="89" width="22" height="22" rx="2.01" />
      <rect x="1398" y="118" width="22" height="22" rx="2.01" />
      <rect x="1398" y="148" width="22" height="22" rx="2.01" />
      <rect x="1398" y="177" width="22" height="22" rx="2.01" />

      <rect x="1432" width="22" height="22" rx="2.01" />
      <rect x="1432" y="30" width="22" height="22" rx="2.01" />
      <rect x="1432" y="59" width="22" height="22" rx="2.01" />
      <rect x="1432" y="89" width="22" height="22" rx="2.01" />
      <rect x="1432" y="118" width="22" height="22" rx="2.01" />
      <rect x="1432" y="148" width="22" height="22" rx="2.01" />
      <rect x="1432" y="177" width="22" height="22" rx="2.01" />

      <rect x="1466" width="22" height="22" rx="2.01" />
      <rect x="1466" y="30" width="22" height="22" rx="2.01" />
      <rect x="1466" y="59" width="22" height="22" rx="2.01" />
      <rect x="1466" y="89" width="22" height="22" rx="2.01" />
      <rect x="1466" y="118" width="22" height="22" rx="2.01" />
      <rect x="1466" y="148" width="22" height="22" rx="2.01" />
      <rect x="1466" y="177" width="22" height="22" rx="2.01" />

      <rect x="1500" width="22" height="22" rx="2.01" />
      <rect x="1500" y="30" width="22" height="22" rx="2.01" />
      <rect x="1500" y="59" width="22" height="22" rx="2.01" />
      <rect x="1500" y="89" width="22" height="22" rx="2.01" />
      <rect x="1500" y="118" width="22" height="22" rx="2.01" />
      <rect x="1500" y="148" width="22" height="22" rx="2.01" />
      <rect x="1500" y="177" width="22" height="22" rx="2.01" />

      <rect x="1534" width="22" height="22" rx="2.01" />
      <rect x="1534" y="30" width="22" height="22" rx="2.01" />
      <rect x="1534" y="59" width="22" height="22" rx="2.01" />
      <rect x="1534" y="89" width="22" height="22" rx="2.01" />
      <rect x="1534" y="118" width="22" height="22" rx="2.01" />
      <rect x="1534" y="148" width="22" height="22" rx="2.01" />
      <rect x="1534" y="177" width="22" height="22" rx="2.01" />

      <rect x="1568" width="22" height="22" rx="2.01" />
      <rect x="1568" y="30" width="22" height="22" rx="2.01" />
      <rect x="1568" y="59" width="22" height="22" rx="2.01" />
      <rect x="1568" y="89" width="22" height="22" rx="2.01" />
      <rect x="1568" y="118" width="22" height="22" rx="2.01" />
      <rect x="1568" y="148" width="22" height="22" rx="2.01" />
      <rect x="1568" y="177" width="22" height="22" rx="2.01" />

      <rect x="1603" width="22" height="22" rx="2.01" />
      <rect x="1603" y="30" width="22" height="22" rx="2.01" />
      <rect x="1603" y="59" width="22" height="22" rx="2.01" />
      <rect x="1603" y="89" width="22" height="22" rx="2.01" />
      <rect x="1603" y="118" width="22" height="22" rx="2.01" />
      <rect x="1603" y="148" width="22" height="22" rx="2.01" />
      <rect x="1603" y="177" width="22" height="22" rx="2.01" />

      <rect x="1636" width="22" height="22" rx="2.01" />
      <rect x="1636" y="30" width="22" height="22" rx="2.01" />
      <rect x="1636" y="59" width="22" height="22" rx="2.01" />
      <rect x="1636" y="89" width="22" height="22" rx="2.01" />
      <rect x="1636" y="118" width="22" height="22" rx="2.01" />
      <rect x="1636" y="148" width="22" height="22" rx="2.01" />
      <rect x="1636" y="177" width="22" height="22" rx="2.01" />

      <rect x="1672" width="22" height="22" rx="2.01" />
      <rect x="1672" y="30" width="22" height="22" rx="2.01" />
      <rect x="1672" y="59" width="22" height="22" rx="2.01" />
      <rect x="1672" y="89" width="22" height="22" rx="2.01" />
      <rect x="1672" y="118" width="22" height="22" rx="2.01" />
      <rect x="1672" y="148" width="22" height="22" rx="2.01" />
      <rect x="1672" y="177" width="22" height="22" rx="2.01" />

      <rect x="1707" width="22" height="22" rx="2.01" />
      <rect x="1707" y="30" width="22" height="22" rx="2.01" />
      <rect x="1707" y="59" width="22" height="22" rx="2.01" />
      <rect x="1707" y="89" width="22" height="22" rx="2.01" />
      <rect x="1707" y="118" width="22" height="22" rx="2.01" />
      <rect x="1707" y="148" width="22" height="22" rx="2.01" />
      <rect x="1707" y="177" width="22" height="22" rx="2.01" />

      <rect x="1738" width="22" height="22" rx="2.01" />
      <rect x="1738" y="30" width="22" height="22" rx="2.01" />
      <rect x="1738" y="59" width="22" height="22" rx="2.01" />
      <rect x="1738" y="89" width="22" height="22" rx="2.01" />
      <rect x="1738" y="118" width="22" height="22" rx="2.01" />
      <rect x="1738" y="148" width="22" height="22" rx="2.01" />
      <rect x="1738" y="177" width="22" height="22" rx="2.01" />
    </g>
  </g>
</svg>