<svg xmlns="http://www.w3.org/2000/svg" viewBox="0 0 1795.01 198.63"><g id="Layer_2" data-name="Layer 2"><g id="Layer_1-2" data-name="Layer 1"><rect y="58.96" width="21.99" height="21.75" rx="2.01"/><rect y="29.48" width="21.99" height="21.75" rx="2.01"/><rect y="88.44" width="21.99" height="21.75" rx="2.01"/><rect y="117.92" width="21.99" height="21.75" rx="2.01"/><rect width="21.99" height="21.75" rx="2.01"/><rect y="147.4" width="21.99" height="21.75" rx="2.01"/><rect y="176.88" width="21.99" height="21.75" rx="2.01"/><rect x="34.32" y="147.4" width="21.99" height="21.75" rx="2.01"/><rect x="34.32" y="176.88" width="21.99" height="21.75" rx="2.01"/><rect x="68.91" y="147.4" width="21.99" height="21.75" rx="2.01"/><rect x="68.91" y="176.88" width="21.99" height="21.75" rx="2.01"/><rect x="34.32" width="21.99" height="21.75" rx="2.01"/><rect x="34.32" y="29.48" width="21.99" height="21.75" rx="2.01"/><rect x="34.32" y="58.96" width="21.99" height="21.75" rx="2.01"/><rect x="34.32" y="88.44" width="21.99" height="21.75" rx="2.01"/><rect x="34.32" y="117.92" width="21.99" height="21.75" rx="2.01"/><rect x="68.91" width="21.99" height="21.75" rx="2.01"/><rect x="68.91" y="29.48" width="21.99" height="21.75" rx="2.01"/><rect x="68.91" y="58.96" width="21.99" height="21.75" rx="2.01"/><rect x="68.91" y="88.44" width="21.99" height="21.75" rx="2.01"/><rect x="68.91" y="117.92" width="21.99" height="21.75" rx="2.01"/><rect x="102.51" y="147.4" width="21.99" height="21.75" rx="2.01"/><rect x="102.51" y="176.88" width="21.99" height="21.75" rx="2.01"/><rect x="102.51" width="21.99" height="21.75" rx="2.01"/><rect x="102.51" y="29.48" width="21.99" height="21.75" rx="2.01"/><rect x="102.51" y="58.96" width="21.99" height="21.75" rx="2.01"/><rect x="102.51" y="88.44" width="21.99" height="21.75" rx="2.01"/><rect x="102.51" y="117.92" width="21.99" height="21.75" rx="2.01"/><rect x="137.08" y="58.96" width="21.99" height="21.75" rx="2.01"/><rect x="137.08" y="29.48" width="21.99" height="21.75" rx="2.01"/><rect x="137.08" y="88.44" width="21.99" height="21.75" rx="2.01"/><rect x="137.08" y="117.92" width="21.99" height="21.75" rx="2.01"/><rect x="137.08" width="21.99" height="21.75" rx="2.01"/><rect x="137.08" y="147.4" width="21.99" height="21.75" rx="2.01"/><rect x="137.08" y="176.88" width="21.99" height="21.75" rx="2.01"/><rect x="171.4" y="147.4" width="21.99" height="21.75" rx="2.01"/><rect x="171.4" y="176.88" width="21.99" height="21.75" rx="2.01"/><rect x="205.99" y="147.4" width="21.99" height="21.75" rx="2.01"/><rect x="205.99" y="176.88" width="21.99" height="21.75" rx="2.01"/><rect x="171.4" width="21.99" height="21.75" rx="2.01"/><rect x="171.4" y="29.48" width="21.99" height="21.75" rx="2.01"/><rect x="171.4" y="58.96" width="21.99" height="21.75" rx="2.01"/><rect x="171.4" y="88.44" width="21.99" height="21.75" rx="2.01"/><rect x="171.4" y="117.92" width="21.99" height="21.75" rx="2.01"/><rect x="205.99" width="21.99" height="21.75" rx="2.01"/><rect x="205.99" y="29.48" width="21.99" height="21.75" rx="2.01"/><rect x="205.99" y="58.96" width="21.99" height="21.75" rx="2.01"/><rect x="205.99" y="88.44" width="21.99" height="21.75" rx="2.01"/><rect x="205.99" y="117.92" width="21.99" height="21.75" rx="2.01"/><rect x="239.59" y="147.4" width="21.99" height="21.75" rx="2.01"/><rect x="239.59" y="176.88" width="21.99" height="21.75" rx="2.01"/><rect x="239.59" width="21.99" height="21.75" rx="2.01"/><rect x="239.59" y="29.48" width="21.99" height="21.75" rx="2.01"/><rect x="239.59" y="58.96" width="21.99" height="21.75" rx="2.01"/><rect x="239.59" y="88.44" width="21.99" height="21.75" rx="2.01"/><rect x="239.59" y="117.92" width="21.99" height="21.75" rx="2.01"/><rect x="272.67" y="58.96" width="21.99" height="21.75" rx="2.01"/><rect x="272.67" y="29.48" width="21.99" height="21.75" rx="2.01"/><rect x="272.67" y="88.44" width="21.99" height="21.75" rx="2.01"/><rect x="272.67" y="117.92" width="21.99" height="21.75" rx="2.01"/><rect x="272.67" width="21.99" height="21.75" rx="2.01"/><rect x="272.67" y="147.4" width="21.99" height="21.75" rx="2.01"/><rect x="272.67" y="176.88" width="21.99" height="21.75" rx="2.01"/><rect x="306.99" y="147.4" width="21.99" height="21.75" rx="2.01"/><rect x="306.99" y="176.88" width="21.99" height="21.75" rx="2.01"/><rect x="341.57" y="147.4" width="21.99" height="21.75" rx="2.01"/><rect x="341.57" y="176.88" width="21.99" height="21.75" rx="2.01"/><rect x="306.99" width="21.99" height="21.75" rx="2.01"/><rect x="306.99" y="29.48" width="21.99" height="21.75" rx="2.01"/><rect x="306.99" y="58.96" width="21.99" height="21.75" rx="2.01"/><rect x="306.99" y="88.44" width="21.99" height="21.75" rx="2.01"/><rect x="306.99" y="117.92" width="21.99" height="21.75" rx="2.01"/><rect x="341.57" width="21.99" height="21.75" rx="2.01"/><rect x="341.57" y="29.48" width="21.99" height="21.75" rx="2.01"/><rect x="341.57" y="58.96" width="21.99" height="21.75" rx="2.01"/><rect x="341.57" y="88.44" width="21.99" height="21.75" rx="2.01"/><rect x="341.57" y="117.92" width="21.99" height="21.75" rx="2.01"/><rect x="375.17" y="147.4" width="21.99" height="21.75" rx="2.01"/><rect x="375.17" y="176.88" width="21.99" height="21.75" rx="2.01"/><rect x="375.17" width="21.99" height="21.75" rx="2.01"/><rect x="375.17" y="29.48" width="21.99" height="21.75" rx="2.01"/><rect x="375.17" y="58.96" width="21.99" height="21.75" rx="2.01"/><rect x="375.17" y="88.44" width="21.99" height="21.75" rx="2.01"/><rect x="375.17" y="117.92" width="21.99" height="21.75" rx="2.01"/><rect x="408.01" y="58.96" width="21.99" height="21.75" rx="2.01"/><rect x="408.01" y="29.48" width="21.99" height="21.75" rx="2.01"/><rect x="408.01" y="88.44" width="21.99" height="21.75" rx="2.01"/><rect x="408.01" y="117.92" width="21.99" height="21.75" rx="2.01"/><rect x="408.01" width="21.99" height="21.75" rx="2.01"/><rect x="408.01" y="147.4" width="21.99" height="21.75" rx="2.01"/><rect x="408.01" y="176.88" width="21.99" height="21.75" rx="2.01"/><rect x="442.33" y="147.4" width="21.99" height="21.75" rx="2.01"/><rect x="442.33" y="176.88" width="21.99" height="21.75" rx="2.01"/><rect x="476.91" y="147.4" width="21.99" height="21.75" rx="2.01"/><rect x="476.91" y="176.88" width="21.99" height="21.75" rx="2.01"/><rect x="442.33" width="21.99" height="21.75" rx="2.01"/><rect x="442.33" y="29.48" width="21.99" height="21.75" rx="2.01"/><rect x="442.33" y="58.96" width="21.99" height="21.75" rx="2.01"/><rect x="442.33" y="88.44" width="21.99" height="21.75" rx="2.01"/><rect x="442.33" y="117.92" width="21.99" height="21.75" rx="2.01"/><rect x="476.91" width="21.99" height="21.75" rx="2.01"/><rect x="476.91" y="29.48" width="21.99" height="21.75" rx="2.01"/><rect x="476.91" y="58.96" width="21.99" height="21.75" rx="2.01"/><rect x="476.91" y="88.44" width="21.99" height="21.75" rx="2.01"/><rect x="476.91" y="117.92" width="21.99" height="21.75" rx="2.01"/><rect x="510.51" y="147.4" width="21.99" height="21.75" rx="2.01"/><rect x="510.51" y="176.88" width="21.99" height="21.75" rx="2.01"/><rect x="510.51" width="21.99" height="21.75" rx="2.01"/><rect x="510.51" y="29.48" width="21.99" height="21.75" rx="2.01"/><rect x="510.51" y="58.96" width="21.99" height="21.75" rx="2.01"/><rect x="510.51" y="88.44" width="21.99" height="21.75" rx="2.01"/><rect x="510.51" y="117.92" width="21.99" height="21.75" rx="2.01"/><rect x="545.12" y="58.96" width="21.99" height="21.75" rx="2.01"/><rect x="545.12" y="29.48" width="21.99" height="21.75" rx="2.01"/><rect x="545.12" y="88.44" width="21.99" height="21.75" rx="2.01"/><rect x="545.12" y="117.92" width="21.99" height="21.75" rx="2.01"/><rect x="545.12" width="21.99" height="21.75" rx="2.01"/><rect x="545.12" y="147.4" width="21.99" height="21.75" rx="2.01"/><rect x="545.12" y="176.88" width="21.99" height="21.75" rx="2.01"/><rect x="579.44" y="147.4" width="21.99" height="21.75" rx="2.01"/><rect x="579.44" y="176.88" width="21.99" height="21.75" rx="2.01"/><rect x="614.03" y="147.4" width="21.99" height="21.75" rx="2.01"/><rect x="614.03" y="176.88" width="21.99" height="21.75" rx="2.01"/><rect x="579.44" width="21.99" height="21.75" rx="2.01"/><rect x="579.44" y="29.48" width="21.99" height="21.75" rx="2.01"/><rect x="579.44" y="58.96" width="21.99" height="21.75" rx="2.01"/><rect x="579.44" y="88.44" width="21.99" height="21.75" rx="2.01"/><rect x="579.44" y="117.92" width="21.99" height="21.75" rx="2.01"/><rect x="614.03" width="21.99" height="21.75" rx="2.01"/><rect x="614.03" y="29.48" width="21.99" height="21.75" rx="2.01"/><rect x="614.03" y="58.96" width="21.99" height="21.75" rx="2.01"/><rect x="614.03" y="88.44" width="21.99" height="21.75" rx="2.01"/><rect x="614.03" y="117.92" width="21.99" height="21.75" rx="2.01"/><rect x="647.63" y="147.4" width="21.99" height="21.75" rx="2.01"/><rect x="647.63" y="176.88" width="21.99" height="21.75" rx="2.01"/><rect x="647.63" width="21.99" height="21.75" rx="2.01"/><rect x="647.63" y="29.48" width="21.99" height="21.75" rx="2.01"/><rect x="647.63" y="58.96" width="21.99" height="21.75" rx="2.01"/><rect x="647.63" y="88.44" width="21.99" height="21.75" rx="2.01"/><rect x="647.63" y="117.92" width="21.99" height="21.75" rx="2.01"/><rect x="681.78" y="58.96" width="21.99" height="21.75" rx="2.01"/><rect x="681.78" y="29.48" width="21.99" height="21.75" rx="2.01"/><rect x="681.78" y="88.44" width="21.99" height="21.75" rx="2.01"/><rect x="681.78" y="117.92" width="21.99" height="21.75" rx="2.01"/><rect x="681.78" width="21.99" height="21.75" rx="2.01"/><rect x="681.78" y="147.4" width="21.99" height="21.75" rx="2.01"/><rect x="681.78" y="176.88" width="21.99" height="21.75" rx="2.01"/><rect x="716.1" y="147.4" width="21.99" height="21.75" rx="2.01"/><rect x="716.1" y="176.88" width="21.99" height="21.75" rx="2.01"/><rect x="750.69" y="147.4" width="21.99" height="21.75" rx="2.01"/><rect x="750.69" y="176.88" width="21.99" height="21.75" rx="2.01"/><rect x="716.1" width="21.99" height="21.75" rx="2.01"/><rect x="716.1" y="29.48" width="21.99" height="21.75" rx="2.01"/><rect x="716.1" y="58.96" width="21.99" height="21.75" rx="2.01"/><rect x="716.1" y="88.44" width="21.99" height="21.75" rx="2.01"/><rect x="716.1" y="117.92" width="21.99" height="21.75" rx="2.01"/><rect x="750.69" width="21.99" height="21.75" rx="2.01"/><rect x="750.69" y="29.48" width="21.99" height="21.75" rx="2.01"/><rect x="750.69" y="58.96" width="21.99" height="21.75" rx="2.01"/><rect x="750.69" y="88.44" width="21.99" height="21.75" rx="2.01"/><rect x="750.69" y="117.92" width="21.99" height="21.75" rx="2.01"/><rect x="784.29" y="147.4" width="21.99" height="21.75" rx="2.01"/><rect x="784.29" y="176.88" width="21.99" height="21.75" rx="2.01"/><rect x="784.29" width="21.99" height="21.75" rx="2.01"/><rect x="784.29" y="29.48" width="21.99" height="21.75" rx="2.01"/><rect x="784.29" y="58.96" width="21.99" height="21.75" rx="2.01"/><rect x="784.29" y="88.44" width="21.99" height="21.75" rx="2.01"/><rect x="784.29" y="117.92" width="21.99" height="21.75" rx="2.01"/><rect x="817.87" y="58.96" width="21.99" height="21.75" rx="2.01"/><rect x="817.87" y="29.48" width="21.99" height="21.75" rx="2.01"/><rect x="817.87" y="88.44" width="21.99" height="21.75" rx="2.01"/><rect x="817.87" y="117.92" width="21.99" height="21.75" rx="2.01"/><rect x="817.87" width="21.99" height="21.75" rx="2.01"/><rect x="817.87" y="147.4" width="21.99" height="21.75" rx="2.01"/><rect x="817.87" y="176.88" width="21.99" height="21.75" rx="2.01"/><rect x="852.19" y="147.4" width="21.99" height="21.75" rx="2.01"/><rect x="852.19" y="176.88" width="21.99" height="21.75" rx="2.01"/><rect x="886.78" y="147.4" width="21.99" height="21.75" rx="2.01"/><rect x="886.78" y="176.88" width="21.99" height="21.75" rx="2.01"/><rect x="852.19" width="21.99" height="21.75" rx="2.01"/><rect x="852.19" y="29.48" width="21.99" height="21.75" rx="2.01"/><rect x="852.19" y="58.96" width="21.99" height="21.75" rx="2.01"/><rect x="852.19" y="88.44" width="21.99" height="21.75" rx="2.01"/><rect x="852.19" y="117.92" width="21.99" height="21.75" rx="2.01"/><rect x="886.78" width="21.99" height="21.75" rx="2.01"/><rect x="886.78" y="29.48" width="21.99" height="21.75" rx="2.01"/><rect x="886.78" y="58.96" width="21.99" height="21.75" rx="2.01"/><rect x="886.78" y="88.44" width="21.99" height="21.75" rx="2.01"/><rect x="886.78" y="117.92" width="21.99" height="21.75" rx="2.01"/><rect x="920.38" y="147.4" width="21.99" height="21.75" rx="2.01"/><rect x="920.38" y="176.88" width="21.99" height="21.75" rx="2.01"/><rect x="920.38" width="21.99" height="21.75" rx="2.01"/><rect x="920.38" y="29.48" width="21.99" height="21.75" rx="2.01"/><rect x="920.38" y="58.96" width="21.99" height="21.75" rx="2.01"/><rect x="920.38" y="88.44" width="21.99" height="21.75" rx="2.01"/><rect x="920.38" y="117.92" width="21.99" height="21.75" rx="2.01"/><rect x="954.72" y="58.96" width="21.99" height="21.75" rx="2.01"/><rect x="954.72" y="29.48" width="21.99" height="21.75" rx="2.01"/><rect x="954.72" y="88.44" width="21.99" height="21.75" rx="2.01"/><rect x="954.72" y="117.92" width="21.99" height="21.75" rx="2.01"/><rect x="954.72" width="21.99" height="21.75" rx="2.01"/><rect x="954.72" y="147.4" width="21.99" height="21.75" rx="2.01"/><rect x="954.72" y="176.88" width="21.99" height="21.75" rx="2.01"/><rect x="989.04" y="147.4" width="21.99" height="21.75" rx="2.01"/><rect x="989.04" y="176.88" width="21.99" height="21.75" rx="2.01"/><rect x="1023.62" y="147.4" width="21.99" height="21.75" rx="2.01"/><rect x="1023.62" y="176.88" width="21.99" height="21.75" rx="2.01"/><rect x="989.04" width="21.99" height="21.75" rx="2.01"/><rect x="989.04" y="29.48" width="21.99" height="21.75" rx="2.01"/><rect x="989.04" y="58.96" width="21.99" height="21.75" rx="2.01"/><rect x="989.04" y="88.44" width="21.99" height="21.75" rx="2.01"/><rect x="989.04" y="117.92" width="21.99" height="21.75" rx="2.01"/><rect x="1023.62" width="21.99" height="21.75" rx="2.01"/><rect x="1023.62" y="29.48" width="21.99" height="21.75" rx="2.01"/><rect x="1023.62" y="58.96" width="21.99" height="21.75" rx="2.01"/><rect x="1023.62" y="88.44" width="21.99" height="21.75" rx="2.01"/><rect x="1023.62" y="117.92" width="21.99" height="21.75" rx="2.01"/><rect x="1057.22" y="147.4" width="21.99" height="21.75" rx="2.01"/><rect x="1057.22" y="176.88" width="21.99" height="21.75" rx="2.01"/><rect x="1057.22" width="21.99" height="21.75" rx="2.01"/><rect x="1057.22" y="29.48" width="21.99" height="21.75" rx="2.01"/><rect x="1057.22" y="58.96" width="21.99" height="21.75" rx="2.01"/><rect x="1057.22" y="88.44" width="21.99" height="21.75" rx="2.01"/><rect x="1057.22" y="117.92" width="21.99" height="21.75" rx="2.01"/><rect x="1090.81" y="58.96" width="21.99" height="21.75" rx="2.01"/><rect x="1090.81" y="29.48" width="21.99" height="21.75" rx="2.01"/><rect x="1090.81" y="88.44" width="21.99" height="21.75" rx="2.01"/><rect x="1090.81" y="117.92" width="21.99" height="21.75" rx="2.01"/><rect x="1090.81" width="21.99" height="21.75" rx="2.01"/><rect x="1090.81" y="147.4" width="21.99" height="21.75" rx="2.01"/><rect x="1090.81" y="176.88" width="21.99" height="21.75" rx="2.01"/><rect x="1125.13" y="147.4" width="21.99" height="21.75" rx="2.01"/><rect x="1125.13" y="176.88" width="21.99" height="21.75" rx="2.01"/><rect x="1159.72" y="147.4" width="21.99" height="21.75" rx="2.01"/><rect x="1159.72" y="176.88" width="21.99" height="21.75" rx="2.01"/><rect x="1125.13" width="21.99" height="21.75" rx="2.01"/><rect x="1125.13" y="29.48" width="21.99" height="21.75" rx="2.01"/><rect x="1125.13" y="58.96" width="21.99" height="21.75" rx="2.01"/><rect x="1125.13" y="88.44" width="21.99" height="21.75" rx="2.01"/><rect x="1125.13" y="117.92" width="21.99" height="21.75" rx="2.01"/><rect x="1159.72" width="21.99" height="21.75" rx="2.01"/><rect x="1159.72" y="29.48" width="21.99" height="21.75" rx="2.01"/><rect x="1159.72" y="58.96" width="21.99" height="21.75" rx="2.01"/><rect x="1159.72" y="88.44" width="21.99" height="21.75" rx="2.01"/><rect x="1159.72" y="117.92" width="21.99" height="21.75" rx="2.01"/><rect x="1193.32" y="147.4" width="21.99" height="21.75" rx="2.01"/><rect x="1193.32" y="176.88" width="21.99" height="21.75" rx="2.01"/><rect x="1193.32" width="21.99" height="21.75" rx="2.01"/><rect x="1193.32" y="29.48" width="21.99" height="21.75" rx="2.01"/><rect x="1193.32" y="58.96" width="21.99" height="21.75" rx="2.01"/><rect x="1193.32" y="88.44" width="21.99" height="21.75" rx="2.01"/><rect x="1193.32" y="117.92" width="21.99" height="21.75" rx="2.01"/><rect x="1226.9" y="58.96" width="21.99" height="21.75" rx="2.01"/><rect x="1226.9" y="29.48" width="21.99" height="21.75" rx="2.01"/><rect x="1226.9" y="88.44" width="21.99" height="21.75" rx="2.01"/><rect x="1226.9" y="117.92" width="21.99" height="21.75" rx="2.01"/><rect x="1226.9" width="21.99" height="21.75" rx="2.01"/><rect x="1226.9" y="147.4" width="21.99" height="21.75" rx="2.01"/><rect x="1226.9" y="176.88" width="21.99" height="21.75" rx="2.01"/><rect x="1261.22" y="147.4" width="21.99" height="21.75" rx="2.01"/><rect x="1261.22" y="176.88" width="21.99" height="21.75" rx="2.01"/><rect x="1295.81" y="147.4" width="21.99" height="21.75" rx="2.01"/><rect x="1295.81" y="176.88" width="21.99" height="21.75" rx="2.01"/><rect x="1261.22" width="21.99" height="21.75" rx="2.01"/><rect x="1261.22" y="29.48" width="21.99" height="21.75" rx="2.01"/><rect x="1261.22" y="58.96" width="21.99" height="21.75" rx="2.01"/><rect x="1261.22" y="88.44" width="21.99" height="21.75" rx="2.01"/><rect x="1261.22" y="117.92" width="21.99" height="21.75" rx="2.01"/><rect x="1295.81" width="21.99" height="21.75" rx="2.01"/><rect x="1295.81" y="29.48" width="21.99" height="21.75" rx="2.01"/><rect x="1295.81" y="58.96" width="21.99" height="21.75" rx="2.01"/><rect x="1295.81" y="88.44" width="21.99" height="21.75" rx="2.01"/><rect x="1295.81" y="117.92" width="21.99" height="21.75" rx="2.01"/><rect x="1329.41" y="147.4" width="21.99" height="21.75" rx="2.01"/><rect x="1329.41" y="176.88" width="21.99" height="21.75" rx="2.01"/><rect x="1329.41" width="21.99" height="21.75" rx="2.01"/><rect x="1329.41" y="29.48" width="21.99" height="21.75" rx="2.01"/><rect x="1329.41" y="58.96" width="21.99" height="21.75" rx="2.01"/><rect x="1329.41" y="88.44" width="21.99" height="21.75" rx="2.01"/><rect x="1329.41" y="117.92" width="21.99" height="21.75" rx="2.01"/><rect x="1363.74" y="58.96" width="21.99" height="21.75" rx="2.01"/><rect x="1363.74" y="29.48" width="21.99" height="21.75" rx="2.01"/><rect x="1363.74" y="88.44" width="21.99" height="21.75" rx="2.01"/><rect x="1363.74" y="117.92" width="21.99" height="21.75" rx="2.01"/><rect x="1363.74" width="21.99" height="21.75" rx="2.01"/><rect x="1363.74" y="147.4" width="21.99" height="21.75" rx="2.01"/><rect x="1363.74" y="176.88" width="21.99" height="21.75" rx="2.01"/><rect x="1398.06" y="147.4" width="21.99" height="21.75" rx="2.01"/><rect x="1398.06" y="176.88" width="21.99" height="21.75" rx="2.01"/><rect x="1432.65" y="147.4" width="21.99" height="21.75" rx="2.01"/><rect x="1432.65" y="176.88" width="21.99" height="21.75" rx="2.01"/><rect x="1398.06" width="21.99" height="21.75" rx="2.01"/><rect x="1398.06" y="29.48" width="21.99" height="21.75" rx="2.01"/><rect x="1398.06" y="58.96" width="21.99" height="21.75" rx="2.01"/><rect x="1398.06" y="88.44" width="21.99" height="21.75" rx="2.01"/><rect x="1398.06" y="117.92" width="21.99" height="21.75" rx="2.01"/><rect x="1432.65" width="21.99" height="21.75" rx="2.01"/><rect x="1432.65" y="29.48" width="21.99" height="21.75" rx="2.01"/><rect x="1432.65" y="58.96" width="21.99" height="21.75" rx="2.01"/><rect x="1432.65" y="88.44" width="21.99" height="21.75" rx="2.01"/><rect x="1432.65" y="117.92" width="21.99" height="21.75" rx="2.01"/><rect x="1466.25" y="147.4" width="21.99" height="21.75" rx="2.01"/><rect x="1466.25" y="176.88" width="21.99" height="21.75" rx="2.01"/><rect x="1466.25" width="21.99" height="21.75" rx="2.01"/><rect x="1466.25" y="29.48" width="21.99" height="21.75" rx="2.01"/><rect x="1466.25" y="58.96" width="21.99" height="21.75" rx="2.01"/><rect x="1466.25" y="88.44" width="21.99" height="21.75" rx="2.01"/><rect x="1466.25" y="117.92" width="21.99" height="21.75" rx="2.01"/><rect x="1499.08" y="58.96" width="21.99" height="21.75" rx="2.01"/><rect x="1499.08" y="29.48" width="21.99" height="21.75" rx="2.01"/><rect x="1499.08" y="88.44" width="21.99" height="21.75" rx="2.01"/><rect x="1499.08" y="117.92" width="21.99" height="21.75" rx="2.01"/><rect x="1499.08" width="21.99" height="21.75" rx="2.01"/><rect x="1499.08" y="147.4" width="21.99" height="21.75" rx="2.01"/><rect x="1499.08" y="176.88" width="21.99" height="21.75" rx="2.01"/><rect x="1533.4" y="147.4" width="21.99" height="21.75" rx="2.01"/><rect x="1533.4" y="176.88" width="21.99" height="21.75" rx="2.01"/><rect x="1567.99" y="147.4" width="21.99" height="21.75" rx="2.01"/><rect x="1567.99" y="176.88" width="21.99" height="21.75" rx="2.01"/><rect x="1533.4" width="21.99" height="21.75" rx="2.01"/><rect x="1533.4" y="29.48" width="21.99" height="21.75" rx="2.01"/><rect x="1533.4" y="58.96" width="21.99" height="21.75" rx="2.01"/><rect x="1533.4" y="88.44" width="21.99" height="21.75" rx="2.01"/><rect x="1533.4" y="117.92" width="21.99" height="21.75" rx="2.01"/><rect x="1567.99" width="21.99" height="21.75" rx="2.01"/><rect x="1567.99" y="29.48" width="21.99" height="21.75" rx="2.01"/><rect x="1567.99" y="58.96" width="21.99" height="21.75" rx="2.01"/><rect x="1567.99" y="88.44" width="21.99" height="21.75" rx="2.01"/><rect x="1567.99" y="117.92" width="21.99" height="21.75" rx="2.01"/><rect x="1601.59" y="147.4" width="21.99" height="21.75" rx="2.01"/><rect x="1601.59" y="176.88" width="21.99" height="21.75" rx="2.01"/><rect x="1601.59" width="21.99" height="21.75" rx="2.01"/><rect x="1601.59" y="29.48" width="21.99" height="21.75" rx="2.01"/><rect x="1601.59" y="58.96" width="21.99" height="21.75" rx="2.01"/><rect x="1601.59" y="88.44" width="21.99" height="21.75" rx="2.01"/><rect x="1601.59" y="117.92" width="21.99" height="21.75" rx="2.01"/><rect x="1636.07" y="58.96" width="21.99" height="21.75" rx="2.01"/><rect x="1636.07" y="29.48" width="21.99" height="21.75" rx="2.01"/><rect x="1636.07" y="88.44" width="21.99" height="21.75" rx="2.01"/><rect x="1636.07" y="117.92" width="21.99" height="21.75" rx="2.01"/><rect x="1636.07" width="21.99" height="21.75" rx="2.01"/><rect x="1636.07" y="147.4" width="21.99" height="21.75" rx="2.01"/><rect x="1636.07" y="176.88" width="21.99" height="21.75" rx="2.01"/><rect x="1670.39" y="147.4" width="21.99" height="21.75" rx="2.01"/><rect x="1670.39" y="176.88" width="21.99" height="21.75" rx="2.01"/><rect x="1704.98" y="147.4" width="21.99" height="21.75" rx="2.01"/><rect x="1704.98" y="176.88" width="21.99" height="21.75" rx="2.01"/><rect x="1670.39" width="21.99" height="21.75" rx="2.01"/><rect x="1670.39" y="29.48" width="21.99" height="21.75" rx="2.01"/><rect x="1670.39" y="58.96" width="21.99" height="21.75" rx="2.01"/><rect x="1670.39" y="88.44" width="21.99" height="21.75" rx="2.01"/><rect x="1670.39" y="117.92" width="21.99" height="21.75" rx="2.01"/><rect x="1704.98" width="21.99" height="21.75" rx="2.01"/><rect x="1704.98" y="29.48" width="21.99" height="21.75" rx="2.01"/><rect x="1704.98" y="58.96" width="21.99" height="21.75" rx="2.01"/><rect x="1704.98" y="88.44" width="21.99" height="21.75" rx="2.01"/><rect x="1704.98" y="117.92" width="21.99" height="21.75" rx="2.01"/><rect x="1738.58" y="147.4" width="21.99" height="21.75" rx="2.01"/><rect x="1738.58" y="176.88" width="21.99" height="21.75" rx="2.01"/><rect x="1738.58" width="21.99" height="21.75" rx="2.01"/><rect x="1738.58" y="29.48" width="21.99" height="21.75" rx="2.01"/><rect x="1738.58" y="58.96" width="21.99" height="21.75" rx="2.01"/><rect x="1738.58" y="88.44" width="21.99" height="21.75" rx="2.01"/><rect x="1738.58" y="117.92" width="21.99" height="21.75" rx="2.01"/><rect x="1773.02" y="147.4" width="21.99" height="21.75" rx="2.01"/><rect x="1773.02" y="176.88" width="21.99" height="21.75" rx="2.01"/><rect x="1773.02" width="21.99" height="21.75" rx="2.01"/><rect x="1773.02" y="29.48" width="21.99" height="21.75" rx="2.01"/><rect x="1773.02" y="58.96" width="21.99" height="21.75" rx="2.01"/><rect x="1773.02" y="88.44" width="21.99" height="21.75" rx="2.01"/><rect x="1773.02" y="117.92" width="21.99" height="21.75" rx="2.01"/></g></g></svg>